<svg width="349" height="159" viewBox="0 0 349 159" fill="none" xmlns="http://www.w3.org/2000/svg">
<g clip-path="url(#clip0)">
<path d="M44.277 156.715L43.6782 156.58C50.3554 126.886 67.1358 99.9206 90.9283 80.6517C108.916 66.1065 130.31 56.3785 153.095 52.3839C175.881 48.3892 199.308 50.2593 221.171 57.8179C243.034 65.3766 262.614 78.3752 278.067 95.5898C293.519 112.804 304.337 133.669 309.5 156.218L308.902 156.354C294.767 94.2927 240.375 50.9483 176.63 50.9483C113.721 50.9483 58.058 95.4295 44.277 156.715Z" fill="#3F3D56"/>
<path d="M276.112 84.162C285.319 84.162 292.782 76.6984 292.782 67.4917C292.782 58.285 285.319 50.8215 276.112 50.8215C266.905 50.8215 259.442 58.285 259.442 67.4917C259.442 76.6984 266.905 84.162 276.112 84.162Z" fill="#FF6584"/>
<path d="M269.779 134.14H269.166V158.386H269.779V134.14Z" fill="#3F3D56"/>
<path d="M275.444 137.23C275.483 145.708 269.518 152.609 269.518 152.609C269.518 152.609 263.49 145.763 263.451 137.285C263.412 128.807 269.377 121.906 269.377 121.906C269.377 121.906 275.405 128.751 275.444 137.23Z" fill="#F36343"/>
<path opacity="0.1" d="M275.444 137.23C275.483 145.708 269.518 152.609 269.518 152.609C269.518 152.609 263.49 145.763 263.451 137.285C263.412 128.807 269.377 121.906 269.377 121.906C269.377 121.906 275.405 128.751 275.444 137.23Z" fill="black"/>
<path opacity="0.4" d="M153.772 85.9334C159.068 85.9334 163.362 81.6396 163.362 76.3429C163.362 71.0463 159.068 66.7524 153.772 66.7524C148.475 66.7524 144.181 71.0463 144.181 76.3429C144.181 81.6396 148.475 85.9334 153.772 85.9334Z" fill="#F36343"/>
<path opacity="0.4" d="M136.022 87.6511C139.738 87.6511 142.75 84.6391 142.75 80.9235C142.75 77.2079 139.738 74.1958 136.022 74.1958C132.307 74.1958 129.294 77.2079 129.294 80.9235C129.294 84.6391 132.307 87.6511 136.022 87.6511Z" fill="#F36343"/>
<path opacity="0.4" d="M63.8968 106.987C67.6124 106.987 70.6245 103.975 70.6245 100.259C70.6245 96.5438 67.6124 93.5317 63.8968 93.5317C60.1812 93.5317 57.1691 96.5438 57.1691 100.259C57.1691 103.975 60.1812 106.987 63.8968 106.987Z" fill="#F36343"/>
<path opacity="0.4" d="M262.816 85.1446C268.113 85.1446 272.407 80.8508 272.407 75.5541C272.407 70.2574 268.113 65.9636 262.816 65.9636C257.519 65.9636 253.226 70.2574 253.226 75.5541C253.226 80.8508 257.519 85.1446 262.816 85.1446Z" fill="#F36343"/>
<path d="M17.3808 155.69C17.9008 157.612 19.6815 158.802 19.6815 158.802C19.6815 158.802 20.6194 156.877 20.0995 154.955C19.5796 153.033 17.7988 151.843 17.7988 151.843C17.7988 151.843 16.8609 153.768 17.3808 155.69Z" fill="#3F3D56"/>
<path d="M18.1448 155.277C19.5714 156.666 19.7457 158.801 19.7457 158.801C19.7457 158.801 17.6069 158.684 16.1803 157.295C14.7537 155.906 14.5795 153.771 14.5795 153.771C14.5795 153.771 16.7182 153.888 18.1448 155.277Z" fill="#F36343"/>
<path d="M205.214 155.69C205.733 157.612 207.514 158.802 207.514 158.802C207.514 158.802 208.452 156.877 207.932 154.955C207.412 153.033 205.632 151.843 205.632 151.843C205.632 151.843 204.694 153.768 205.214 155.69Z" fill="#3F3D56"/>
<path d="M205.978 155.277C207.404 156.666 207.578 158.801 207.578 158.801C207.578 158.801 205.44 158.684 204.013 157.295C202.586 155.906 202.412 153.771 202.412 153.771C202.412 153.771 204.551 153.888 205.978 155.277Z" fill="#F36343"/>
<path d="M20.9124 141.244L19.6426 139.128L31.4939 128.969H61.9688V131.932L50.9641 143.783L38.266 146.323L20.9124 141.244Z" fill="#3F3D56"/>
<path d="M67.2146 134.931V128.308H63.2247V130.397L61.9688 128.969L51.8105 139.128L50.1173 140.821L48.0011 149.286L51.8105 158.598H71.2804V139.551L67.2146 134.931Z" fill="#CCCCCC"/>
<path d="M51.8105 139.127H19.6426V158.597H51.8105V139.127Z" fill="#F2F2F2"/>
<path d="M47.3662 145.265H40.594V151.191H47.3662V145.265Z" fill="#3F3D56"/>
<path d="M37.8428 145.053H31.9172V158.598H37.8428V145.053Z" fill="#CCCCCC"/>
<path d="M25.145 147.169V145.053H22.6056V147.169H24.9333H25.145Z" fill="#3F3D56"/>
<path d="M24.9333 148.863H22.6056V150.979H25.145V148.863H24.9333Z" fill="#3F3D56"/>
<path d="M29.3777 145.053H26.8381V147.17H29.3777V145.053Z" fill="#3F3D56"/>
<path d="M29.3777 148.863H26.8381V150.979H29.3777V148.863Z" fill="#3F3D56"/>
<path d="M60.9106 147.381V145.265H58.3709V147.381H60.6988H60.9106Z" fill="#3F3D56"/>
<path d="M60.6988 149.074H58.3709V151.19H60.9106V149.074H60.6988Z" fill="#3F3D56"/>
<path d="M65.1432 145.265H62.6036V147.381H65.1432V145.265Z" fill="#3F3D56"/>
<path d="M65.1432 149.074H62.6036V151.19H65.1432V149.074Z" fill="#3F3D56"/>
<path d="M143.372 141.244L142.102 139.128L153.954 128.969H184.428V131.932L173.424 143.783L160.726 146.323L143.372 141.244Z" fill="#3F3D56"/>
<path d="M189.674 134.931V128.308H185.684V130.397L184.428 128.969L174.27 139.128L172.577 140.821L170.461 149.286L174.27 158.598H193.74V139.551L189.674 134.931Z" fill="#CCCCCC"/>
<path d="M174.27 139.127H142.102V158.597H174.27V139.127Z" fill="#F2F2F2"/>
<path d="M169.826 145.265H163.054V151.191H169.826V145.265Z" fill="#3F3D56"/>
<path d="M160.302 145.053H154.377V158.598H160.302V145.053Z" fill="#CCCCCC"/>
<path d="M147.605 147.169V145.053H145.065V147.169H147.393H147.605Z" fill="#3F3D56"/>
<path d="M147.393 148.863H145.065V150.979H147.605V148.863H147.393Z" fill="#3F3D56"/>
<path d="M151.837 145.053H149.298V147.17H151.837V145.053Z" fill="#3F3D56"/>
<path d="M151.837 148.863H149.298V150.979H151.837V148.863Z" fill="#3F3D56"/>
<path d="M183.37 147.381V145.265H180.83V147.381H183.158H183.37Z" fill="#3F3D56"/>
<path d="M183.158 149.074H180.83V151.19H183.37V149.074H183.158Z" fill="#3F3D56"/>
<path d="M187.603 145.265H185.063V147.381H187.603V145.265Z" fill="#3F3D56"/>
<path d="M187.603 149.074H185.063V151.19H187.603V149.074Z" fill="#3F3D56"/>
<path d="M86.0946 105.69L83.9784 103.997L95.8297 93.4153H125.881V102.727L106.411 115.848L86.0946 105.69Z" fill="#3F3D56"/>
<path d="M131.36 99.351V93.6267H127.37V95.0287L125.881 93.4153L116.146 103.997L112.337 106.537L106.43 149.69L115.338 158.598H136.039V104.42L131.36 99.351Z" fill="#CCCCCC"/>
<path d="M116.146 103.997H83.9783V158.598H116.146V103.997Z" fill="#F2F2F2"/>
<path d="M102.39 145.265H96.4645V158.598H102.39V145.265Z" fill="#CCCCCC"/>
<path d="M90.1155 149.074V146.958H87.5761V149.074H89.9041H90.1155Z" fill="#3F3D56"/>
<path d="M89.9041 150.767H87.5761V152.884H90.1155V150.767H89.9041Z" fill="#3F3D56"/>
<path d="M94.3482 146.958H91.8086V149.074H94.3482V146.958Z" fill="#3F3D56"/>
<path d="M94.3482 150.767H91.8086V152.883H94.3482V150.767Z" fill="#3F3D56"/>
<path d="M107.469 149.074V146.958H104.93V149.074H107.258H107.469Z" fill="#3F3D56"/>
<path d="M107.258 150.767H104.93V152.884H107.469V150.767H107.258Z" fill="#3F3D56"/>
<path d="M111.702 146.958H109.162V149.074H111.702V146.958Z" fill="#3F3D56"/>
<path d="M111.702 150.767H109.162V152.883H111.702V150.767Z" fill="#3F3D56"/>
<path d="M125.246 106.748V104.632H122.707V106.748H125.035H125.246Z" fill="#3F3D56"/>
<path d="M125.035 108.441H122.707V110.557H125.246V108.441H125.035Z" fill="#3F3D56"/>
<path d="M129.479 104.632H126.939V106.748H129.479V104.632Z" fill="#3F3D56"/>
<path d="M129.479 108.441H126.939V110.557H129.479V108.441Z" fill="#3F3D56"/>
<path d="M125.246 118.599V116.483H122.707V118.599H125.035H125.246Z" fill="#3F3D56"/>
<path d="M125.035 120.292H122.707V122.409H125.246V120.292H125.035Z" fill="#3F3D56"/>
<path d="M129.479 116.483H126.939V118.599H129.479V116.483Z" fill="#3F3D56"/>
<path d="M129.479 120.292H126.939V122.409H129.479V120.292Z" fill="#3F3D56"/>
<path d="M125.246 130.451V128.334H122.707V130.451H125.035H125.246Z" fill="#3F3D56"/>
<path d="M125.035 132.144H122.707V134.26H125.246V132.144H125.035Z" fill="#3F3D56"/>
<path d="M129.479 128.334H126.939V130.451H129.479V128.334Z" fill="#3F3D56"/>
<path d="M129.479 132.144H126.939V134.26H129.479V132.144Z" fill="#3F3D56"/>
<path d="M125.246 142.302V140.186H122.707V142.302H125.035H125.246Z" fill="#3F3D56"/>
<path d="M125.035 143.995H122.707V146.111H125.246V143.995H125.035Z" fill="#3F3D56"/>
<path d="M129.479 140.186H126.939V142.302H129.479V140.186Z" fill="#3F3D56"/>
<path d="M129.479 143.995H126.939V146.111H129.479V143.995Z" fill="#3F3D56"/>
<path d="M112.125 106.748H87.576V111.827H112.125V106.748Z" fill="#3F3D56"/>
<path d="M112.125 116.906H87.576V121.985H112.125V116.906Z" fill="#3F3D56"/>
<path d="M112.125 127.065H87.576V132.144H112.125V127.065Z" fill="#3F3D56"/>
<path d="M112.125 137.223H87.576V142.302H112.125V137.223Z" fill="#3F3D56"/>
<path d="M209.782 105.69L207.666 103.997L219.517 93.4153H249.568V102.727L230.098 115.848L209.782 105.69Z" fill="#3F3D56"/>
<path d="M255.047 99.351V93.6267H251.058V95.0287L249.568 93.4153L239.833 103.997L236.024 106.537L230.118 149.69L239.025 158.598H259.727V104.42L255.047 99.351Z" fill="#CCCCCC"/>
<path d="M239.833 103.997H207.666V158.598H239.833V103.997Z" fill="#F2F2F2"/>
<path d="M226.077 145.265H220.152V158.598H226.077V145.265Z" fill="#CCCCCC"/>
<path d="M213.803 149.074V146.958H211.263V149.074H213.591H213.803Z" fill="#3F3D56"/>
<path d="M213.591 150.767H211.263V152.884H213.803V150.767H213.591Z" fill="#3F3D56"/>
<path d="M218.035 146.958H215.496V149.074H218.035V146.958Z" fill="#3F3D56"/>
<path d="M218.035 150.767H215.496V152.883H218.035V150.767Z" fill="#3F3D56"/>
<path d="M231.156 149.074V146.958H228.617V149.074H230.945H231.156Z" fill="#3F3D56"/>
<path d="M230.945 150.767H228.617V152.884H231.156V150.767H230.945Z" fill="#3F3D56"/>
<path d="M235.389 146.958H232.85V149.074H235.389V146.958Z" fill="#3F3D56"/>
<path d="M235.389 150.767H232.85V152.883H235.389V150.767Z" fill="#3F3D56"/>
<path d="M248.933 106.748V104.632H246.394V106.748H248.722H248.933Z" fill="#3F3D56"/>
<path d="M248.722 108.441H246.394V110.557H248.933V108.441H248.722Z" fill="#3F3D56"/>
<path d="M253.166 104.632H250.626V106.748H253.166V104.632Z" fill="#3F3D56"/>
<path d="M253.166 108.441H250.626V110.557H253.166V108.441Z" fill="#3F3D56"/>
<path d="M248.933 118.599V116.483H246.394V118.599H248.722H248.933Z" fill="#3F3D56"/>
<path d="M248.722 120.292H246.394V122.409H248.933V120.292H248.722Z" fill="#3F3D56"/>
<path d="M253.166 116.483H250.626V118.599H253.166V116.483Z" fill="#3F3D56"/>
<path d="M253.166 120.292H250.626V122.409H253.166V120.292Z" fill="#3F3D56"/>
<path d="M248.933 130.451V128.334H246.394V130.451H248.722H248.933Z" fill="#3F3D56"/>
<path d="M248.722 132.144H246.394V134.26H248.933V132.144H248.722Z" fill="#3F3D56"/>
<path d="M253.166 128.334H250.626V130.451H253.166V128.334Z" fill="#3F3D56"/>
<path d="M253.166 132.144H250.626V134.26H253.166V132.144Z" fill="#3F3D56"/>
<path d="M248.933 142.302V140.186H246.394V142.302H248.722H248.933Z" fill="#3F3D56"/>
<path d="M248.722 143.995H246.394V146.111H248.933V143.995H248.722Z" fill="#3F3D56"/>
<path d="M253.166 140.186H250.626V142.302H253.166V140.186Z" fill="#3F3D56"/>
<path d="M253.166 143.995H250.626V146.111H253.166V143.995Z" fill="#3F3D56"/>
<path d="M235.812 106.748H211.263V111.827H235.812V106.748Z" fill="#3F3D56"/>
<path d="M235.812 116.906H211.263V121.985H235.812V116.906Z" fill="#3F3D56"/>
<path d="M235.812 127.065H211.263V132.144H235.812V127.065Z" fill="#3F3D56"/>
<path d="M235.812 137.223H211.263V142.302H235.812V137.223Z" fill="#3F3D56"/>
<path d="M277.61 105.69L275.494 103.997L287.345 93.4153H317.397V102.727L297.927 115.848L277.61 105.69Z" fill="#3F3D56"/>
<path d="M322.876 99.351V93.6267H318.886V95.0287L317.397 93.4153L307.662 103.997L303.853 106.537L297.946 149.69L306.854 158.598H327.555V104.42L322.876 99.351Z" fill="#CCCCCC"/>
<path d="M307.662 103.997H275.494V158.598H307.662V103.997Z" fill="#F2F2F2"/>
<path d="M293.906 145.265H287.98V158.598H293.906V145.265Z" fill="#CCCCCC"/>
<path d="M281.631 149.074V146.958H279.092V149.074H281.42H281.631Z" fill="#3F3D56"/>
<path d="M281.42 150.767H279.092V152.884H281.631V150.767H281.42Z" fill="#3F3D56"/>
<path d="M285.864 146.958H283.324V149.074H285.864V146.958Z" fill="#3F3D56"/>
<path d="M285.864 150.767H283.324V152.883H285.864V150.767Z" fill="#3F3D56"/>
<path d="M298.985 149.074V146.958H296.446V149.074H298.773H298.985Z" fill="#3F3D56"/>
<path d="M298.773 150.767H296.446V152.884H298.985V150.767H298.773Z" fill="#3F3D56"/>
<path d="M303.218 146.958H300.678V149.074H303.218V146.958Z" fill="#3F3D56"/>
<path d="M303.218 150.767H300.678V152.883H303.218V150.767Z" fill="#3F3D56"/>
<path d="M316.762 106.748V104.632H314.222V106.748H316.55H316.762Z" fill="#3F3D56"/>
<path d="M316.55 108.441H314.222V110.557H316.762V108.441H316.55Z" fill="#3F3D56"/>
<path d="M320.995 104.632H318.455V106.748H320.995V104.632Z" fill="#3F3D56"/>
<path d="M320.995 108.441H318.455V110.557H320.995V108.441Z" fill="#3F3D56"/>
<path d="M316.762 118.599V116.483H314.222V118.599H316.55H316.762Z" fill="#3F3D56"/>
<path d="M316.55 120.292H314.222V122.409H316.762V120.292H316.55Z" fill="#3F3D56"/>
<path d="M320.995 116.483H318.455V118.599H320.995V116.483Z" fill="#3F3D56"/>
<path d="M320.995 120.292H318.455V122.409H320.995V120.292Z" fill="#3F3D56"/>
<path d="M316.762 130.451V128.334H314.222V130.451H316.55H316.762Z" fill="#3F3D56"/>
<path d="M316.55 132.144H314.222V134.26H316.762V132.144H316.55Z" fill="#3F3D56"/>
<path d="M320.995 128.334H318.455V130.451H320.995V128.334Z" fill="#3F3D56"/>
<path d="M320.995 132.144H318.455V134.26H320.995V132.144Z" fill="#3F3D56"/>
<path d="M316.762 142.302V140.186H314.222V142.302H316.55H316.762Z" fill="#3F3D56"/>
<path d="M316.55 143.995H314.222V146.111H316.762V143.995H316.55Z" fill="#3F3D56"/>
<path d="M320.995 140.186H318.455V142.302H320.995V140.186Z" fill="#3F3D56"/>
<path d="M320.995 143.995H318.455V146.111H320.995V143.995Z" fill="#3F3D56"/>
<path d="M303.641 106.748H279.092V111.827H303.641V106.748Z" fill="#3F3D56"/>
<path d="M303.641 116.906H279.092V121.985H303.641V116.906Z" fill="#3F3D56"/>
<path d="M303.641 127.065H279.092V132.144H303.641V127.065Z" fill="#3F3D56"/>
<path d="M303.641 137.223H279.092V142.302H303.641V137.223Z" fill="#3F3D56"/>
<path d="M348.964 158.386H0V159H348.964V158.386Z" fill="#3F3D56"/>
<path d="M77.9567 134.14H77.3429V158.386H77.9567V134.14Z" fill="#3F3D56"/>
<path d="M83.6217 137.23C83.6608 145.708 77.6958 152.609 77.6958 152.609C77.6958 152.609 71.6675 145.763 71.6284 137.285C71.5893 128.807 77.5543 121.906 77.5543 121.906C77.5543 121.906 83.5826 128.751 83.6217 137.23Z" fill="#F36343"/>
<path d="M139.34 134.14H138.726V158.386H139.34V134.14Z" fill="#3F3D56"/>
<path d="M145.005 137.23C145.044 145.708 139.079 152.609 139.079 152.609C139.079 152.609 133.051 145.763 133.012 137.285C132.973 128.807 138.938 121.906 138.938 121.906C138.938 121.906 144.966 128.751 145.005 137.23Z" fill="#F36343"/>
<path d="M261.8 134.14H261.186V158.386H261.8V134.14Z" fill="#3F3D56"/>
<path d="M267.465 137.23C267.504 145.708 261.539 152.609 261.539 152.609C261.539 152.609 255.51 145.763 255.471 137.285C255.432 128.807 261.397 121.906 261.397 121.906C261.397 121.906 267.425 128.751 267.465 137.23Z" fill="#F36343"/>
<path d="M180.313 52.8049C186.754 52.8049 191.976 51.63 191.976 50.1808C191.976 48.7315 186.754 47.5566 180.313 47.5566C173.872 47.5566 168.65 48.7315 168.65 50.1808C168.65 51.63 173.872 52.8049 180.313 52.8049Z" fill="#F36343"/>
<path d="M193.511 13.5043C193.511 20.9625 180.006 42.0475 180.006 42.0475C180.006 42.0475 166.502 20.9625 166.502 13.5043C166.502 9.92275 167.925 6.48787 170.457 3.95532C172.99 1.42277 176.425 0 180.006 0C183.588 0 187.023 1.42277 189.555 3.95532C192.088 6.48787 193.511 9.92275 193.511 13.5043Z" fill="#F36343"/>
<path d="M180.006 21.1771C184.244 21.1771 187.679 17.7418 187.679 13.5042C187.679 9.26658 184.244 5.8313 180.006 5.8313C175.769 5.8313 172.333 9.26658 172.333 13.5042C172.333 17.7418 175.769 21.1771 180.006 21.1771Z" fill="#F2F2F2"/>
</g>
<defs>
<clipPath id="clip0">
<rect width="348.964" height="159" fill="white"/>
</clipPath>
</defs>
</svg>
