<svg width="35" height="35" viewBox="0 0 35 35" fill="none" xmlns="http://www.w3.org/2000/svg">
<path d="M10.0917 15.8083C11.7025 15.8083 13.0083 14.5025 13.0083 12.8916C13.0083 11.2808 11.7025 9.97498 10.0917 9.97498C8.48082 9.97498 7.17499 11.2808 7.17499 12.8916C7.17499 14.5025 8.48082 15.8083 10.0917 15.8083Z" fill="black"/>
<path d="M29.05 21.6416V9.72706C29.05 7.45206 27.1979 5.59998 24.9229 5.59998C23.8292 5.59998 22.7792 6.03748 22.0062 6.81039L20.1833 8.63331C19.95 8.56039 19.7021 8.51664 19.4396 8.51664C18.8562 8.51664 18.3167 8.69164 17.8646 8.98331L21.8896 13.0083C22.1812 12.5562 22.3562 12.0166 22.3562 11.4333C22.3562 11.1708 22.3125 10.9375 22.2542 10.6896L24.0771 8.86664C24.2958 8.64789 24.6021 8.51664 24.9229 8.51664C25.5937 8.51664 26.1333 9.05623 26.1333 9.72706V21.6416H16.1437C15.7062 21.3354 15.3125 20.9854 14.9479 20.5916L12.9062 18.3312C12.6292 18.025 12.2792 17.7771 11.9 17.6021C11.4479 17.3833 10.9521 17.2666 10.4417 17.2666C8.63332 17.2812 7.17499 18.7396 7.17499 20.5479V21.6416H2.79999V30.3916C2.79999 31.9958 4.11249 33.3083 5.71665 33.3083C5.71665 34.1104 6.3729 34.7666 7.17499 34.7666H27.5917C28.3937 34.7666 29.05 34.1104 29.05 33.3083C30.6542 33.3083 31.9667 31.9958 31.9667 30.3916V21.6416H29.05Z" fill="black"/>
</svg>
