<svg width="35" height="35" viewBox="0 0 35 35" fill="none" xmlns="http://www.w3.org/2000/svg">
<g clip-path="url(#clip0)">
<path d="M30.5667 21.9917C28.9625 21.9917 27.65 23.3042 27.65 24.9083V29.2833H7.23336V24.9083C7.23336 23.3042 5.93544 21.9917 4.31669 21.9917C2.69794 21.9917 1.40002 23.3042 1.40002 24.9083V32.2C1.40002 33.8042 2.71252 35.1167 4.31669 35.1167H30.5667C32.1709 35.1167 33.4834 33.8042 33.4834 32.2V24.9083C33.4834 23.3042 32.1709 21.9917 30.5667 21.9917ZM26.1917 14.7H8.69169C7.08752 14.7 5.77502 16.0125 5.77502 17.6167V20.7521C7.46669 21.35 8.69169 22.9688 8.69169 24.85V27.825H26.1917V24.8646C26.1917 22.9688 27.4167 21.3646 29.1084 20.7667V17.6167C29.1084 16.0125 27.7959 14.7 26.1917 14.7Z" fill="black"/>
</g>
<defs>
<clipPath id="clip0">
<rect width="35" height="35" fill="white"/>
</clipPath>
</defs>
</svg>
