<svg width="38" height="38" viewBox="0 0 38 38" fill="none" xmlns="http://www.w3.org/2000/svg">
<path d="M34.8333 20.5833H28.2308L33.3608 15.4533L31.1283 13.205L23.75 20.5833H20.5833V17.4166L27.9616 10.0383L25.7133 7.80581L20.5833 12.9358V6.33331H17.4166V12.9358L12.2866 7.80581L10.0383 10.0383L17.4166 17.4166V20.5833H14.25L6.87163 13.205L4.63913 15.4533L9.76913 20.5833H3.16663V23.75H9.76913L4.63913 28.88L6.87163 31.1283L14.25 23.75H17.4166V26.9166L10.0383 34.295L12.2866 36.5275L17.4166 31.3975V38H20.5833V31.3975L25.7133 36.5275L27.9616 34.295L20.5833 26.9166V23.75H23.75L31.1283 31.1283L33.3608 28.88L28.2308 23.75H34.8333V20.5833Z" fill="black"/>
</svg>
