<svg width="35" height="35" viewBox="0 0 35 35" fill="none" xmlns="http://www.w3.org/2000/svg">
<g clip-path="url(#clip0)">
<path d="M31.9667 24.9083C31.9667 23.3042 30.6542 21.9917 29.05 21.9917V17.6167C29.05 16.0125 27.7375 14.7 26.1333 14.7H8.63332C7.02915 14.7 5.71665 16.0125 5.71665 17.6167V21.9917C4.11249 21.9917 2.79999 23.3042 2.79999 24.9083V32.2H4.73957L5.71665 35.1167H7.17499L8.15207 32.2H26.6292L27.5917 35.1167H29.05L30.0271 32.2H31.9667V24.9083ZM26.1333 21.9917H18.8417V17.6167H26.1333V21.9917ZM8.63332 17.6167H15.925V21.9917H8.63332V17.6167ZM5.71665 24.9083H29.05V29.2833H5.71665V24.9083Z" fill="black"/>
</g>
<defs>
<clipPath id="clip0">
<rect width="35" height="35" fill="white"/>
</clipPath>
</defs>
</svg>
