<svg width="38" height="39" viewBox="0 0 38 39" fill="none" xmlns="http://www.w3.org/2000/svg">
<path fill-rule="evenodd" clip-rule="evenodd" d="M6.83997 18.1608V13.68C20.4408 13.68 31.4766 24.7158 31.4766 38.3167H26.9958C26.9958 27.1858 17.9708 18.1608 6.83997 18.1608ZM6.83997 22.6416V27.1225C13.015 27.1225 18.0341 32.1416 18.0341 38.3166H22.515C22.515 29.6558 15.5008 22.6416 6.83997 22.6416ZM10.2916 38.3167C12.1979 38.3167 13.7433 36.7713 13.7433 34.865C13.7433 32.9587 12.1979 31.4133 10.2916 31.4133C8.38533 31.4133 6.83997 32.9587 6.83997 34.865C6.83997 36.7713 8.38533 38.3167 10.2916 38.3167Z" fill="#333333"/>
</svg>
