<svg width="32" height="31" viewBox="0 0 32 31" fill="none" xmlns="http://www.w3.org/2000/svg">
<path d="M14.5734 1.39057C15.0224 0.00860882 16.9776 0.00860977 17.4266 1.39058L20.1535 9.78319C20.3543 10.4012 20.9303 10.8197 21.5801 10.8197H30.4046C31.8577 10.8197 32.4619 12.6791 31.2863 13.5332L24.1471 18.7201C23.6214 19.1021 23.4014 19.7791 23.6022 20.3972L26.3291 28.7898C26.7781 30.1717 25.1964 31.3209 24.0209 30.4668L16.8817 25.2799C16.3559 24.8979 15.6441 24.8979 15.1183 25.2799L7.97914 30.4668C6.80357 31.3209 5.22185 30.1717 5.67088 28.7898L8.3978 20.3972C8.59861 19.7791 8.37863 19.1021 7.8529 18.7201L0.713716 13.5332C-0.461854 12.6791 0.14231 10.8197 1.5954 10.8197H10.4199C11.0697 10.8197 11.6457 10.4012 11.8465 9.78319L14.5734 1.39057Z" fill="#F36343"/>
</svg>
